<?xml version="1.0" standalone="no"?>
<!DOCTYPE svg PUBLIC "-//W3C//DTD SVG 20010904//EN"
 "http://www.w3.org/TR/2001/REC-SVG-20010904/DTD/svg10.dtd">
<svg version="1.0" xmlns="http://www.w3.org/2000/svg"
 width="512.000000pt" height="512.000000pt" viewBox="0 0 512.000000 512.000000"
 preserveAspectRatio="xMidYMid meet">
<metadata>
Created by potrace 1.16, written by Peter Selinger 2001-2019
</metadata>
<g transform="translate(0.000000,512.000000) scale(0.100000,-0.100000)"
fill="#000000" stroke="none">
<path d="M2230 5105 c-444 -55 -852 -220 -1220 -493 -150 -112 -400 -362 -512
-512 -239 -322 -388 -659 -470 -1061 -22 -107 -23 -137 -23 -479 0 -342 1
-372 23 -479 82 -402 231 -739 470 -1061 112 -150 362 -400 512 -512 372 -276
779 -439 1230 -494 155 -18 465 -18 620 1 344 43 689 157 967 321 115 68 147
112 146 206 -1 117 -84 198 -204 198 -47 0 -70 -7 -126 -37 -273 -147 -461
-216 -723 -266 -156 -29 -571 -32 -720 -4 -466 87 -846 285 -1169 608 -323
323 -521 703 -608 1169 -25 136 -25 564 0 700 87 466 285 846 608 1169 323
323 703 521 1169 608 137 25 564 25 700 0 308 -58 608 -175 818 -319 136 -94
254 -88 336 15 27 34 31 48 34 110 4 100 -17 135 -128 209 -319 214 -706 356
-1105 403 -147 18 -480 18 -625 0z"/>
<path d="M4814 4690 c-34 -17 -218 -241 -1095 -1333 -580 -721 -1067 -1324
-1083 -1339 -22 -22 -38 -28 -72 -28 -51 0 10 -54 -667 590 -252 239 -477 445
-500 458 -35 20 -53 23 -108 20 -83 -4 -138 -38 -170 -105 -29 -60 -24 -157
11 -206 40 -55 1089 -1045 1153 -1088 161 -107 400 -107 563 0 32 21 75 56 95
77 69 74 2134 2649 2152 2684 27 53 20 154 -15 207 -52 78 -174 107 -264 63z"/>
<path d="M4737 3329 c-48 -26 -94 -89 -102 -143 -5 -28 2 -83 19 -167 39 -189
49 -312 43 -524 -10 -390 -108 -720 -314 -1057 -61 -100 -68 -117 -71 -174 -8
-124 61 -204 184 -212 98 -7 140 18 211 126 211 320 347 709 394 1121 17 155
7 524 -20 676 -47 269 -66 312 -158 359 -45 23 -138 20 -186 -5z"/>
</g>
</svg>
