<?xml version="1.0" encoding="UTF-8" standalone="no"?>
<!-- Created with Inkscape (http://www.inkscape.org/) -->

<svg
   width="180.27115mm"
   height="180.51123mm"
   viewBox="0 0 180.27115 180.51123"
   version="1.1"
   id="svg5"
   xmlns="http://www.w3.org/2000/svg"
   xmlns:svg="http://www.w3.org/2000/svg">
  <defs
     id="defs2" />
  <g
     id="layer1"
     transform="translate(-0.47692021,-0.08791767)">
    <path       
       d="m 82.246693,180.22735 c -16.96951,-1.63403 -32.69656,-7.74244 -46.34398,-18.00007 -4.19762,-3.155 -11.27936,-9.95877 -15.00207,-14.41321 -10.23815,-12.25054 -17.3407503,-28.19253 -19.6976103,-44.21186 -0.96814999,-6.580485 -0.96814999,-20.001363 0,-26.581843 1.39106,-9.45488 4.03699,-17.87549 8.34978,-26.57297 C 21.382123,26.591581 42.720923,9.2935942 68.350473,2.7839222 c 17.26416,-4.3849413 36.221467,-3.39415604 53.126247,2.776593 8.64193,3.15456 20.31511,9.6850518 22.08057,12.3528388 3.52422,5.325451 -1.56561,12.389174 -7.59559,10.541253 -0.86161,-0.264044 -2.99531,-1.389555 -4.74156,-2.501133 -24.30613,-15.472103 -55.652817,-15.730611 -80.396117,-0.663005 -9.7274,5.923573 -19.44697,15.643136 -25.37054,25.370538 -5.25028,8.62177 -8.67792,18.00981 -10.36765,28.39627 -0.82802,5.08964 -0.82802,17.418378 0,22.508023 2.72024,16.72076 9.84972,30.73691 21.62363,42.51082 19.97323,19.97323 47.93266,27.11907 75.352937,19.25863 4.95342,-1.41997 9.3152,-3.2282 15.26286,-6.32739 4.49095,-2.34013 5.06981,-2.55213 6.57392,-2.40761 3.66397,0.35207 6.19172,2.79744 6.55776,6.34407 0.24626,2.38602 -0.7155,4.73349 -2.49556,6.09121 -1.58054,1.20554 -10.06956,5.5574 -13.44402,6.89202 -13.65387,5.40018 -28.554457,7.62107 -42.270667,6.3003 z m 75.524927,-36.99788 c -2.02764,-0.61053 -3.40512,-1.79089 -4.35451,-3.73138 -1.32421,-2.70658 -1.09027,-4.25005 1.24001,-8.18142 1.00467,-1.69498 2.93176,-5.30427 4.28242,-8.02066 7.44531,-14.97374 9.61685,-32.844205 5.97684,-49.185713 -0.89504,-4.01821 -0.90061,-6.03425 -0.0215,-7.75758 2.23957,-4.38993 7.74027,-5.18379 11.17916,-1.61339 1.28445,1.33358 1.5564,1.91903 2.23608,4.81384 3.87008,16.48317 3.0333,33.644903 -2.42516,49.738373 -2.89393,8.53229 -9.54398,21.10313 -12.11814,22.90736 -1.78491,1.25104 -3.99903,1.63164 -5.99527,1.03057 z M 87.652073,124.50329 c -2.443,-0.43225 -6.03085,-2.09549 -7.99869,-3.70799 -0.83179,-0.68159 -9.81017,-9.09703 -19.95196,-18.70099 -19.45017,-18.418703 -20.3799,-19.439053 -20.3799,-22.366353 0,-0.7701 0.41374,-2.12254 0.98226,-3.2108 0.79516,-1.52212 1.34037,-2.06733 2.8625,-2.8625 2.40179,-1.25472 4.0349,-1.25785 6.32413,-0.0121 1.16,0.63123 8.20484,7.07047 20.16622,18.432638 10.11089,9.604375 18.8966,17.764455 19.52382,18.133515 1.39662,0.8218 3.27421,0.57498 4.51408,-0.59339 0.46019,-0.43366 17.632887,-21.688473 38.161557,-47.232923 29.47899,-36.681635 37.59604,-46.573165 38.61499,-47.056692 2.18575,-1.037203 4.00353,-1.056924 6.16604,-0.06689 3.58393,1.640775 5.06408,5.444984 3.47765,8.938081 -0.61189,1.347298 -72.85938,91.625794 -76.02284,94.996064 -4.06069,4.32617 -10.410287,6.37719 -16.439857,5.31033 z"
       id="path74" />
    <rect       
       id="rect279"
       width="1.8299371"
       height="2.1603425"
       x="-10.610346"
       y="-8.5292416" />
    <rect
       id="rect287"
       width="183.2419"
       height="184.56799"
       x="-0.33040532"
       y="0.18389075" />
  </g>
</svg>
